# AST/ASF file generated using VICON BodyLanguage
# -----------------------------------------------
:version 1.10
:name VICON
:units
  mass 1.0
  length 0.45
  angle deg
:documentation
   .ast/.asf automatically generated from VICON data using
   VICON BodyBuilder and BodyLanguage model FoxedUp or BRILLIANT.MOD
:root
   order TX TY TZ RX RY RZ
   axis XYZ
   position 0 0 0  
   orientation 0 0 0 
:bonedata
  begin
     id 1 
     name lhipjoint
     direction 0.61522 -0.761478 0.204097 
     length 2.55743 
     axis 0 0 0  XYZ
  end
  begin
     id 2 
     name lfemur
     direction 0.34202 -0.939693 0  
     length 7.61162  
     axis 0 0 20  XYZ
    dof rx ry rz
    limits (-160.0 20.0)
           (-70.0 70.0)
           (-60.0 70.0)
  end
  begin
     id 3 
     name ltibia
     direction 0.34202 -0.939693 0   
     length 8.12393   
     axis 0 0 20   XYZ
    dof rx
    limits (-10.0 170.0)
  end
  begin
     id 4 
     name lfoot
     direction 0.0841971 -0.23133 0.969225   
     length 2.3572   
     axis -90 7.62852e-016 20   XYZ
    dof rx rz
    limits (-45.0 90.0)
           (-70.0 20.0)
  end
  begin
     id 5 
     name ltoes
     direction 1.53562e-011 -4.22209e-011 1   
     length 1.17993   
     axis -90 7.62852e-016 20   XYZ
    dof rx
    limits (-90.0 20.0)
  end
  begin
     id 6 
     name rhipjoint
     direction -0.625247 -0.75382 0.202044   
     length 2.58341  
     axis 0 0 0  XYZ 
  end
  begin
     id 7 
     name rfemur
     direction -0.34202 -0.939693 0   
     length 7.42147   
     axis 0 0 -20   XYZ
    dof rx ry rz
    limits (-160.0 20.0)
           (-70.0 70.0)
           (-70.0 60.0)
  end
  begin
     id 8 
     name rtibia
     direction -0.34202 -0.939693 0   
     length 8.20893   
     axis 0 0 -20   XYZ
    dof rx
    limits (-10.0 170.0)
 end
 begin
     id 9 
     name rfoot
     direction -0.124331 -0.341598 0.931586   
     length 2.45604  
     axis -90 -7.62852e-016 -20   XYZ
    dof rx rz
    limits (-45.0 90.0)
           (-20.0 70.0)
  end
  begin
     id 10 
     name rtoes
     direction -1.5353e-011 -4.2199e-011 1   
     length 1.21323   
     axis -90 -7.62852e-016 -20   XYZ
    dof rx
    limits (-90.0 20.0)
  end
  begin
     id 11 
     name lowerback
     direction -0.0218484 0.994884 -0.0986303   
     length 2.00523   
     axis 0 0 0   XYZ
    dof rx ry rz
    limits (-20.0 45.0)
           (-30.0 30.0)
           (-30.0 30.0)
  end
  begin
     id 12 
     name upperback
     direction -0.0097305 0.999717 -0.0217111   
     length 2.01352   
     axis 0 0 0   XYZ
    dof rx ry rz
    limits (-20.0 45.0)
           (-30.0 30.0)
           (-30.0 30.0)
  end
  begin
     id 13 
     name thorax
     direction -0.000928262 0.999699 0.0245198   
     length 2.02938   
     axis 0 0 0   XYZ
    dof rx ry rz
    limits (-20.0 45.0)
           (-30.0 30.0)
           (-30.0 30.0)
  end
  begin
     id 14 
     name lowerneck
     direction -0.0307979 0.998024 0.0547665   
     length 1.77263   
     axis 0 0 0   XYZ
    dof rx ry rz
    limits (-20.0 45.0)
           (-30.0 30.0)
           (-30.0 30.0)
  end
  begin
     id 15 
     name upperneck
     direction 0.0531587 0.996611 -0.0627734   
     length 1.77971   
     axis 0 0 0   XYZ
    dof rx ry rz
    limits (-20.0 45.0)
           (-30.0 30.0)
           (-30.0 30.0)
  end
  begin
     id 16
     name head
     direction 0.0213833 0.999404 -0.0271147  
     length 1.78263  
     axis 0 0 0   XYZ
    dof rx ry rz
    limits (-20.0 45.0)
           (-30.0 30.0)
           (-30.0 30.0)
  end
  begin
     id 17 
     name lclavicle
     direction 0.940017 0.332249 -0.0773233  
     length 3.73315  
     axis 0 0 0   XYZ
    dof ry rz
    limits (-20.0 10.0)
           (0.0 20.0)
  end
  begin
     id 18 
     name lhumerus
     direction 1 -4.48944e-011 7.52288e-028   
     length 5.40188   
     axis 180 -30 -90   XYZ
    dof rx ry rz
    limits (-60.0 90.0)
           (-90.0 90.0)
           (-90.0 90.0)
  end
  begin
     id 19
     name lradius
     direction 1 -4.48988e-011 1.48381e-027   
     length 3.68559   
     axis 180 -30 -90   XYZ
    dof rx
    limits (-10.0 170.0)
  end
  begin
     id 20
     name lwrist
     direction 1 -4.48925e-011 2.56952e-028   
     length 1.84279   
     axis -5.12785e-016 90 90   XYZ
    dof ry
    limits (-180.0 0.0)
 end
  begin
     id 21 
     name lhand
     direction 1 -4.49009e-011 5.13905e-028   
     length 0.61753   
     axis -3.27915e-016 90 90   XYZ
    dof rx rz
    limits (-90.0 90.0)
           (-45.0 45.0)
  end
  begin
     id 22 
     name lfingers
     direction 1 -4.49012e-011 1.02781e-027   
     length 0.497868   
     axis -6.5583e-016 90 90   XYZ
    dof rx
    limits (0.0 90.0)
  end
  begin
     id 23
     name lthumb
     direction 0.707107 -6.34987e-011 0.707107   
     length 0.714842   
     axis -90 45 2.85299e-015   XYZ
    dof rx rz
    limits (-45.0 45.0)
           (-45.0 45.0)
  end
  begin
     id 24 
     name rclavicle
     direction -0.9009 0.425937 -0.0834057   
     length 3.27864  
     axis 0 0 0   XYZ 
    dof ry rz
    limits (-10.0 20.0)
           (-20.0 0.0)
  end
  begin
     id 25 
     name rhumerus
     direction -1 -4.48953e-011 -1.03572e-027  
     length 6.1067   
     axis 180 30 90   XYZ
    dof rx ry rz
    limits (-90.0 60.0)
           (-90.0 90.0)
           (-90.0 90.0)
  end
  begin
     id 26 
     name rradius
     direction -1 -4.48975e-011 1.20742e-027   
     length 3.63052   
     axis 180 30 90   XYZ
    dof rx
    limits (-10.0 170.0)
  end
  begin
     id 27 
     name rwrist
     direction -1 -4.49017e-011 2.56952e-028   
     length 1.81526   
     axis -5.12785e-016 -90 -90   XYZ
    dof ry
    limits (-180.0 0.0)
  end
  begin
     id 28
     name rhand
     direction -1 -4.48832e-011 5.13905e-028   
     length 0.583848   
     axis -3.27915e-016 -90 -90   XYZ
    dof rx rz
    limits (-90.0 90.0)
           (-45.0 45.0)
  end
  begin
     id 29
     name rfingers
     direction -1 -4.48729e-011 1.02781e-027   
     length 0.470713   
     axis -6.5583e-016 -90 -90   XYZ
    dof rx
    limits (0.0 90.0)
  end
  begin
     id 30
     name rthumb
     direction -0.707107 -6.34964e-011 0.707107   
     length 0.675852   
     axis -90 -45 -2.85299e-015   XYZ
    dof rx rz
    limits (-45.0 45.0)
           (-45.0 45.0)
  end
:hierarchy
  begin
    root lhipjoint rhipjoint lowerback
    lhipjoint lfemur
    lfemur ltibia
    ltibia lfoot
    lfoot ltoes
    rhipjoint rfemur
    rfemur rtibia
    rtibia rfoot
    rfoot rtoes
    lowerback upperback
    upperback thorax
    thorax lowerneck lclavicle rclavicle
    lowerneck upperneck
    upperneck head
    lclavicle lhumerus
    lhumerus lradius
    lradius lwrist
    lwrist lhand lthumb
    lhand lfingers
    rclavicle rhumerus
    rhumerus rradius
    rradius rwrist
    rwrist rhand rthumb
    rhand rfingers
  end

#!OML:ASF F:\VICON\USERDATA\INSTALL\rory3\rory3.ASF
:FULLY-SPECIFIED
:DEGREES
1
root -0.00352056 15.8971 2.29534 -7.93652 -8.24874 5.32708
lowerback 15.8313 1.38072 -4.47607
upperback 5.39838 1.03546 -1.74064
thorax -3.17405 0.492844 0.511081
lowerneck -10.3324 -0.616806 -6.19079
upperneck 5.95234 -0.578468 7.34199
head 3.49382 -0.0734207 3.21859
rclavicle -1.758e-015 -2.51463e-014
rhumerus -24.8326 -25.2688 -52.4018
rradius 27.1057
rwrist 7.97616
rhand -28.6508 7.19912
rfingers 7.12502
rthumb -2.0145 -22.7711
lclavicle -1.758e-015 -2.51463e-014
lhumerus -25.5515 12.8606 51.8698
lradius 28.9225
lwrist -7.57011
lhand -20.925 26.6261
lfingers 7.12502
lthumb 5.44679 56.5361
rfemur -25.2002 12.7227 10.4898
rtibia 74.5471
rfoot -37.8028 -11.868
rtoes -16.416
lfemur -21.4631 8.45174 -18.6905
ltibia 73.0972
lfoot -33.7062 4.28226
ltoes -16.1781
2
root 0.000288429 15.8574 2.30713 -8.04215 -8.11272 5.44736
lowerback 15.7354 1.36187 -4.57142
upperback 5.41971 1.00161 -1.78591
thorax -3.09925 0.474606 0.525287
lowerneck -10.3157 -0.547359 -6.23519
upperneck 5.95671 -0.479978 7.34201
head 3.48559 -0.0260327 3.23169
rclavicle 3.31598e-014 -2.67365e-014
rhumerus -24.3275 -25.8892 -51.0842
rradius 27.0817
rwrist 7.39296
rhand -28.8925 7.33151
rfingers 7.12502
rthumb -2.2479 -22.6364
lclavicle 3.31598e-014 -2.67365e-014
lhumerus -25.018 12.6012 50.6989
lradius 29.5544
lwrist -6.92782
lhand -20.7389 26.9299
lfingers 7.12502
lthumb 5.62642 56.8352
rfemur -25.132 12.5473 10.3553
rtibia 74.8008
rfoot -38.3587 -11.9764
rtoes -16.2579
lfemur -21.6241 8.48713 -18.8105
ltibia 73.5928
lfoot -33.9374 4.37029
ltoes -16.3801
3
root 0.00489384 15.8236 2.31658 -7.98073 -8.1618 5.28677
lowerback 15.5336 1.36424 -4.38976
upperback 5.38648 1.045 -1.75927
thorax -3.02709 0.496338 0.446518
lowerneck -10.4172 -0.517756 -6.20177
upperneck 6.14332 -0.43907 7.23649
head 3.55525 -0.00768123 3.19775
rclavicle -1.53561e-014 1.11319e-014
rhumerus -23.7919 -26.5198 -49.7831
rradius 27.157
rwrist 7.09858
rhand -29.4254 7.08225
rfingers 7.12502
rthumb -2.76257 -22.8796
lclavicle -1.53561e-014 1.11319e-014
lhumerus -24.4907 12.1184 49.5684
lradius 30.3591
lwrist -5.84355
lhand -20.7047 26.3158
lfingers 7.12502
lthumb 5.65945 56.2202
rfemur -25.2123 12.5819 10.5495
rtibia 74.9418
rfoot -38.984 -11.9961
rtoes -15.4392
lfemur -21.8963 8.68189 -18.6029
ltibia 74.0116
lfoot -34.2433 4.24283
ltoes -15.78
4
root 0.00999358 15.7896 2.32025 -7.89957 -8.3005 4.96275
lowerback 15.4532 1.38538 -4.06146
upperback 5.28595 1.1273 -1.66119
thorax -3.09114 0.540393 0.350341
lowerneck -10.4447 -0.511301 -6.22443
upperneck 6.31037 -0.424591 7.13888
head 3.60895 -0.00492815 3.17345
rclavicle 6.44187e-015 -2.22142e-014
rhumerus -23.3056 -27.0836 -48.4418
rradius 27.3573
rwrist 6.65565
rhand -30.1886 6.71705
rfingers 7.12502
rthumb -3.49955 -23.234
lclavicle 6.44187e-015 -2.22142e-014
lhumerus -24.0902 11.6026 48.4215
lradius 31.3115
lwrist -5.00908
lhand -20.9846 26.0738
lfingers 7.12502
lthumb 5.38926 55.9853
rfemur -25.3182 12.7395 10.9447
rtibia 75.0784
rfoot -39.4146 -12.1364
rtoes -15.0403
lfemur -22.0522 8.94842 -18.1986
ltibia 74.3071
lfoot -34.658 3.87291
ltoes -14.9601
5
root 0.0155345 15.7692 2.32814 -7.87345 -8.32101 4.86179
lowerback 15.4011 1.38422 -3.98164
upperback 5.18354 1.13969 -1.61028
thorax -3.17185 0.549003 0.356374
lowerneck -10.5025 -0.481448 -6.32749
upperneck 6.4285 -0.371716 7.13806
head 3.6506 0.019899 3.19449
rclavicle -1.55052e-014 6.80837e-015
rhumerus -22.818 -27.3624 -47.1471
rradius 27.6932
rwrist 5.83481
rhand -30.3008 6.20181
rfingers 7.12502
rthumb -3.60794 -23.7474
lclavicle -1.55052e-014 6.80837e-015
lhumerus -23.7287 11.3212 47.1526
lradius 32.2807
lwrist -4.52725
lhand -21.1263 26.5088
lfingers 7.12502
lthumb 5.25241 56.4237
rfemur -25.2987 12.8026 11.0532
rtibia 75.1599
rfoot -39.3311 -12.548
rtoes -16.0877
lfemur -22.0535 9.18021 -18.082
ltibia 74.3872
lfoot -35.0191 3.82403
ltoes -15.206
6
root 0.0209628 15.7619 2.33405 -7.77117 -8.24271 4.9077
lowerback 15.2088 1.36268 -4.03944
upperback 5.12785 1.11179 -1.62662
thorax -3.12743 0.535336 0.379757
lowerneck -10.7234 -0.476898 -6.39991
upperneck 6.56511 -0.354132 7.19317
head 3.72719 0.0337599 3.2267
rclavicle -2.50344e-014 -1.30701e-014
rhumerus -22.1636 -28.0578 -45.9065
rradius 27.9405
rwrist 5.27351
rhand -30.5467 5.51817
rfingers 7.12502
rthumb -3.84537 -24.4269
lclavicle -2.50344e-014 -1.30701e-014
lhumerus -23.2267 11.1661 45.843
lradius 33.363
lwrist -3.9795
lhand -21.1006 27.1849
lfingers 7.12502
lthumb 5.2772 57.0992
rfemur -25.3873 12.795 10.9541
rtibia 75.2038
rfoot -38.584 -13.2116
rtoes -18.2767
lfemur -22.0662 9.38205 -18.1592
ltibia 74.2665
lfoot -35.3188 3.84245
ltoes -15.3799
7
root 0.0279035 15.763 2.34069 -7.73182 -8.22071 4.9953
lowerback 15.037 1.35986 -4.10413
upperback 5.08889 1.10598 -1.66473
thorax -3.07661 0.532318 0.379989
lowerneck -10.8753 -0.437329 -6.49061
upperneck 6.67275 -0.291779 7.27856
head 3.78061 0.0695613 3.27371
rclavicle -3.28305e-014 1.72943e-014
rhumerus -21.4791 -29.1203 -44.6639
rradius 28.2128
rwrist 5.07168
rhand -30.9735 4.3754
rfingers 7.12502
rthumb -4.25756 -25.5618
lclavicle -3.28305e-014 1.72943e-014
lhumerus -22.8333 10.8769 44.5349
lradius 34.6115
lwrist -3.31677
lhand -21.1466 28.1421
lfingers 7.12502
lthumb 5.23279 58.0575
rfemur -25.4282 12.8401 10.8024
rtibia 75.1584
rfoot -40.0583 -12.0123
rtoes -13.7553
lfemur -21.9003 9.54969 -18.2699
ltibia 73.9662
lfoot -35.6159 3.54693
ltoes -14.3601
8
root 0.0337435 15.7701 2.35014 -7.76814 -8.26895 5.02099
lowerback 14.9639 1.38748 -4.12307
upperback 5.03329 1.14192 -1.66817
thorax -3.09767 0.55107 0.381432
lowerneck -10.9623 -0.378571 -6.54632
upperneck 6.74298 -0.20594 7.31323
head 3.81012 0.113992 3.30015
rclavicle -1.9543e-014 5.06901e-015
rhumerus -20.8982 -29.8386 -43.4503
rradius 28.6877
rwrist 4.62737
rhand -31.2854 3.67076
rfingers 7.12502
rthumb -4.55878 -26.2602
lclavicle -1.9543e-014 5.06901e-015
lhumerus -22.5015 10.5492 43.2513
lradius 35.8885
lwrist -2.78306
lhand -21.2523 28.9261
lfingers 7.12502
lthumb 5.13072 58.844
rfemur -25.3161 12.9828 10.7666
rtibia 74.9971
rfoot -40.4181 -11.6812
rtoes -12.5638
lfemur -21.5194 9.73299 -18.2991
ltibia 73.5065
lfoot -35.8217 3.30644
ltoes -13.4004
9
root 0.039616 15.7997 2.3626 -7.73862 -8.23906 4.97065
lowerback 14.8476 1.38051 -4.08429
upperback 4.97209 1.14463 -1.63973
thorax -3.10002 0.553343 0.390477
lowerneck -10.9977 -0.363875 -6.55912
upperneck 6.71616 -0.177439 7.27356
head 3.80567 0.126214 3.29165
rclavicle -9.89575e-015 -5.86415e-015
rhumerus -20.2671 -30.2149 -42.3245
rradius 29.2892
rwrist 3.78632
rhand -31.5699 3.46454
rfingers 7.12502
rthumb -4.83347 -26.4603
lclavicle -9.89575e-015 -5.86415e-015
lhumerus -22.057 10.247 42.0013
lradius 37.1896
lwrist -2.15268
lhand -21.4876 29.6394
lfingers 7.12502
lthumb 4.90356 59.5627
rfemur -25.0746 13.0613 10.8151
rtibia 74.6329
rfoot -40.2921 -11.6841
rtoes -12.6947
lfemur -21.2184 9.83716 -18.2712
ltibia 72.9457
lfoot -35.8081 3.26957
ltoes -13.0978
10
root 0.0488085 15.8494 2.3768 -7.64125 -8.09188 5.06657
lowerback 14.6461 1.35491 -4.1819
upperback 4.86946 1.1061 -1.63902
thorax -3.10011 0.535513 0.455365
lowerneck -10.8604 -0.364838 -6.55458
upperneck 6.60903 -0.17382 7.17996
head 3.75022 0.120622 3.26026
rclavicle 3.2756e-014 -4.96962e-017
rhumerus -19.7201 -30.3688 -41.1419
rradius 29.9377
rwrist 2.75176
rhand -31.6672 3.67495
rfingers 7.12502
rthumb -4.92741 -26.2478
lclavicle 3.2756e-014 -4.96962e-017
lhumerus -21.5934 9.8991 40.8016
lradius 38.4187
lwrist -1.27021
lhand -22.4115 29.8337
lfingers 7.12502
lthumb 4.01138 59.7757
rfemur -24.8065 12.9505 10.6393
rtibia 74.0999
rfoot -40.1448 -11.5327
rtoes -12.4549
lfemur -20.9894 9.77511 -18.4681
ltibia 72.2463
lfoot -35.6409 3.24522
ltoes -12.9851
11
root 0.0604822 15.904 2.39067 -7.53373 -7.87229 5.23304
lowerback 14.4279 1.33668 -4.30075
upperback 4.76285 1.07461 -1.6633
thorax -3.09513 0.521359 0.504891
lowerneck -10.8809 -0.374264 -6.64627
upperneck 6.67211 -0.177802 7.21759
head 3.77308 0.118673 3.28744
rclavicle -6.99474e-015 1.16289e-014
rhumerus -19.2949 -30.6688 -39.8582
rradius 30.6025
rwrist 1.84646
rhand -31.9241 3.8275
rfingers 7.12502
rthumb -5.17543 -26.0893
lclavicle -6.99474e-015 1.16289e-014
lhumerus -20.9854 9.90549 39.6702
lradius 39.4443
lwrist -0.96065
lhand -23.693 28.3308
lfingers 7.12502
lthumb 2.77387 58.2925
rfemur -24.5117 12.7093 10.3489
rtibia 73.424
rfoot -39.8646 -11.4334
rtoes -12.4126
lfemur -20.6251 9.64107 -18.7764
ltibia 71.3883
lfoot -35.4106 2.97246
ltoes -12.0641
12
root 0.0702673 15.9778 2.40645 -7.44098 -7.59474 5.46811
lowerback 14.229 1.30844 -4.47748
upperback 4.64949 1.01935 -1.72577
thorax -3.10633 0.495877 0.550357
lowerneck -11.0763 -0.398892 -6.75635
upperneck 6.88508 -0.201314 7.31467
head 3.87166 0.112987 3.33732
rclavicle 5.71506e-015 -7.95139e-015
rhumerus -18.812 -31.219 -38.665
rradius 31.2629
rwrist 1.35988
rhand -32.4925 3.06684
rfingers 7.12502
rthumb -5.7242 -26.8358
lclavicle 5.71506e-015 -7.95139e-015
lhumerus -20.3224 10.3496 38.5259
lradius 40.309
lwrist -1.50587
lhand -24.3576 26.4316
lfingers 7.12502
lthumb 2.13203 56.4007
rfemur -24.0878 12.4737 9.99392
rtibia 72.5736
rfoot -39.5284 -11.3255
rtoes -12.1143
lfemur -20.2876 9.44344 -19.1663
ltibia 70.4512
lfoot -34.9465 2.91488
ltoes -11.673
13
root 0.0782727 16.0781 2.42626 -7.29506 -7.34366 5.51038
lowerback 13.9494 1.25496 -4.49506
upperback 4.55188 0.96143 -1.72596
thorax -3.05609 0.468074 0.573428
lowerneck -11.1335 -0.429733 -6.77148
upperneck 6.92333 -0.241096 7.33874
head 3.89564 0.0953107 3.34545
rclavicle 1.38295e-014 -2.03506e-014
rhumerus -18.2895 -31.6818 -37.5853
rradius 32.0505
rwrist 0.756593
rhand -33.1365 2.27835
rfingers 7.12502
rthumb -6.346 -27.6066
lclavicle 1.38295e-014 -2.03506e-014
lhumerus -19.7521 10.703 37.4006
lradius 41.3285
lwrist -1.79026
lhand -24.5627 25.9562
lfingers 7.12502
lthumb 1.93388 55.9272
rfemur -23.5534 12.3339 9.89858
rtibia 71.5229
rfoot -38.848 -11.3542
rtoes -12.2807
lfemur -20.0668 9.23394 -19.3219
ltibia 69.4779
lfoot -34.2333 3.14359
ltoes -11.9786
14
root 0.0849835 16.1781 2.44446 -7.11625 -7.15213 5.28348
lowerback 13.6026 1.20248 -4.29589
upperback 4.50311 0.94309 -1.63503
thorax -2.91856 0.457973 0.564932
lowerneck -11.0716 -0.442592 -6.79896
upperneck 6.84958 -0.260747 7.40422
head 3.8647 0.0871857 3.36812
rclavicle -8.28179e-015 2.3e-014
rhumerus -17.8075 -31.9227 -36.5495
rradius 32.9428
rwrist -0.145233
rhand -33.7553 1.84834
rfingers 7.12502
rthumb -6.9434 -28.0178
lclavicle -8.28179e-015 2.3e-014
lhumerus -19.0569 10.9212 36.3436
lradius 42.4277
lwrist -1.70661
lhand -24.7601 25.8461
lfingers 7.12502
lthumb 1.74322 55.8188
rfemur -23.0276 12.3221 10.1696
rtibia 70.3872
rfoot -37.4198 -11.9953
rtoes -14.188
lfemur -19.7272 9.07647 -19.1436
ltibia 68.4563
lfoot -33.4912 3.05653
ltoes -12.1561
